<?xml version="1.0" standalone="no"?>
<!DOCTYPE svg PUBLIC "-//W3C//DTD SVG 20010904//EN"
 "http://www.w3.org/TR/2001/REC-SVG-20010904/DTD/svg10.dtd">
<svg version="1.0" xmlns="http://www.w3.org/2000/svg"
 width="200.000000pt" height="200.000000pt" viewBox="0 0 200.000000 200.000000"
 preserveAspectRatio="xMidYMid meet">
<metadata>
Created by potrace 1.14, written by Peter Selinger 2001-2017
</metadata>
<g transform="translate(0.000000,200.000000) scale(0.100000,-0.100000)"
fill="#000000" stroke="none">
<path d="M710 1370 c-40 -40 -14 -117 40 -122 34 -4 39 -14 28 -57 -6 -20 -8
-64 -5 -98 l5 -63 -28 0 c-55 0 -82 -73 -38 -104 33 -23 55 -20 80 14 l22 30
33 -32 c18 -18 33 -39 34 -47 0 -11 2 -12 6 -3 2 7 -9 29 -27 48 -63 73 -62
114 4 114 18 0 37 5 43 11 14 14 83 -14 83 -34 0 -31 41 -67 75 -67 81 0 105
104 31 135 -31 13 -74 5 -87 -16 -11 -18 -87 20 -93 47 -4 15 -19 29 -39 38
-21 8 -38 25 -47 45 -13 31 -12 33 30 76 54 55 121 80 195 72 93 -9 169 -66
180 -133 3 -21 17 -63 31 -93 l25 -54 -25 -26 c-20 -21 -26 -38 -26 -72 0 -66
-9 -74 -82 -73 -42 0 -55 -2 -38 -7 41 -12 107 -10 118 4 5 6 13 36 17 65 5
40 13 57 31 69 29 19 30 42 4 93 -11 22 -23 61 -27 86 -15 110 -154 191 -282
163 -27 -6 -69 -23 -95 -39 l-45 -29 -7 22 c-17 57 -84 77 -124 37z m90 -30
c12 -22 0 -55 -22 -63 -39 -13 -74 37 -48 68 18 21 57 19 70 -5z m11 -207 c-6
-13 -8 -35 -5 -49 4 -14 2 -24 -5 -24 -12 0 -16 112 -4 124 14 14 25 -26 14
-51z m74 -28 c0 -23 -34 -33 -45 -14 -13 20 1 40 24 37 13 -2 21 -10 21 -23z
m219 -57 c14 -23 -3 -52 -33 -56 -42 -6 -67 38 -39 66 17 17 58 11 72 -10z
m-334 -63 c10 -12 10 -18 0 -30 -25 -30 -61 -7 -46 30 3 8 12 15 19 15 8 0 20
-7 27 -15z"/>
<path d="M235 771 c28 -6 30 -10 36 -61 l6 -55 1 57 c2 56 2 57 35 61 17 2 1
4 -38 4 -44 0 -59 -2 -40 -6z"/>
<path d="M562 720 c0 -36 2 -56 5 -45 14 69 12 66 46 63 29 -3 33 -7 38 -43
l7 -40 -2 45 -1 45 -40 0 c-31 0 -41 4 -47 20 -3 11 -6 -9 -6 -45z"/>
<path d="M332 738 c-15 -15 -15 -51 0 -66 14 -14 74 -16 82 -4 3 5 -13 8 -36
8 -24 -1 -43 4 -45 12 -3 8 9 12 41 12 47 0 59 13 34 38 -15 15 -61 15 -76 0z
m68 -13 c0 -10 -11 -15 -35 -15 -33 0 -43 8 -28 23 13 14 63 7 63 -8z"/>
<path d="M447 744 c-4 -4 -7 -22 -7 -40 0 -27 5 -35 25 -40 31 -8 75 3 75 17
0 8 -4 8 -14 0 -8 -7 -27 -11 -43 -9 -24 3 -28 8 -28 33 0 25 4 30 28 33 16 2
35 -3 44 -10 14 -11 15 -11 11 2 -5 16 -78 27 -91 14z"/>
<path d="M680 709 c0 -47 17 -52 22 -6 3 28 6 32 33 32 27 0 31 -4 36 -40 l7
-40 -2 45 -1 45 -47 1 -48 2 0 -39z"/>
<path d="M809 729 c-18 -35 3 -69 44 -69 38 0 57 15 57 45 0 30 -19 45 -57 45
-23 0 -36 -6 -44 -21z m86 -8 c10 -33 -5 -52 -39 -49 -31 3 -44 23 -32 54 8
21 63 18 71 -5z"/>
<path d="M960 709 c0 -47 17 -52 22 -6 2 27 7 32 28 32 21 0 26 -6 31 -40 5
-34 6 -36 8 -10 2 42 14 57 42 53 19 -2 25 -11 30 -43 l7 -40 -2 45 -1 45 -82
1 -83 1 0 -38z"/>
<path d="M1150 724 c0 -38 18 -64 45 -64 45 0 55 10 54 54 l-2 41 -6 -40 c-5
-36 -9 -40 -36 -40 -27 0 -30 3 -33 38 -4 41 -22 51 -22 11z"/>
<path d="M1283 734 c-8 -21 6 -32 47 -36 46 -4 36 -23 -12 -22 -20 0 -35 -3
-32 -8 7 -11 65 -10 83 1 24 15 4 40 -35 43 -21 2 -39 9 -42 17 -4 11 5 13 42
9 25 -3 43 -2 40 3 -10 16 -84 10 -91 -7z"/>
<path d="M1400 710 c0 -22 5 -40 10 -40 6 0 10 18 10 40 0 22 -4 40 -10 40 -5
0 -10 -18 -10 -40z"/>
<path d="M1440 709 c0 -47 17 -52 22 -6 3 28 6 32 33 32 27 0 31 -4 36 -40 l7
-40 -2 45 -1 45 -47 1 -48 2 0 -39z"/>
<path d="M1569 729 c-19 -36 3 -69 46 -69 19 0 35 -5 35 -11 0 -8 -14 -10 -40
-6 -23 3 -38 1 -34 -4 8 -13 68 -11 82 3 7 7 12 34 12 60 l0 48 -45 0 c-35 0
-47 -4 -56 -21z m83 -1 c7 -61 5 -64 -32 -58 -35 5 -48 25 -36 56 7 17 65 19
68 2z"/>
<path d="M1693 734 c-8 -21 13 -34 55 -34 23 0 32 -4 29 -12 -2 -8 -21 -13
-46 -12 -31 1 -38 -2 -27 -8 9 -5 31 -8 49 -6 24 2 33 8 35 25 3 19 -2 22 -40
25 -53 4 -52 23 2 22 21 0 37 3 34 8 -10 15 -84 9 -91 -8z"/>
<path d="M593 613 c224 -2 590 -2 815 0 224 1 40 2 -408 2 -448 0 -632 -1
-407 -2z"/>
</g>
</svg>
